<mxfile host="app.diagrams.net" modified="2021-04-14T02:28:00.546Z" agent="5.0 (Macintosh; Intel Mac OS X 10_14_6) AppleWebKit/537.36 (KHTML, like Gecko) Chrome/87.0.4280.88 Safari/537.36" etag="r0bMcyzgJBlyg9L0Sgmu" version="14.5.8" type="github" pages="2">
  <diagram name="Page-1" id="55a83fd1-7818-8e21-69c5-c3457e3827bb">
    <mxGraphModel dx="925" dy="642" grid="0" gridSize="10" guides="1" tooltips="1" connect="1" arrows="1" fold="1" page="1" pageScale="1" pageWidth="1100" pageHeight="850" background="#ffffff" math="0" shadow="0">
      <root>
        <mxCell id="0" />
        <mxCell id="1" parent="0" />
        <mxCell id="69ecfefc5c41e42c-1" value="" style="image;html=1;labelBackgroundColor=#ffffff;image=img/lib/clip_art/networking/Wireless_Router_128x128.png;rounded=1;shadow=0;comic=0;strokeWidth=2;fontSize=22" parent="1" vertex="1">
          <mxGeometry x="470" y="465" width="80" height="80" as="geometry" />
        </mxCell>
        <mxCell id="69ecfefc5c41e42c-4" value="Tablet" style="image;html=1;labelBackgroundColor=#ffffff;image=img/lib/clip_art/computers/iPad_128x128.png;rounded=1;shadow=0;comic=0;strokeWidth=2;fontSize=22" parent="1" vertex="1">
          <mxGeometry x="640" y="680" width="80" height="80" as="geometry" />
        </mxCell>
        <mxCell id="69ecfefc5c41e42c-5" value="PC" style="image;html=1;labelBackgroundColor=#ffffff;image=img/lib/clip_art/computers/Monitor_Tower_128x128.png;rounded=1;shadow=0;comic=0;strokeWidth=2;fontSize=22" parent="1" vertex="1">
          <mxGeometry x="190" y="640" width="80" height="80" as="geometry" />
        </mxCell>
        <mxCell id="69ecfefc5c41e42c-8" value="Mobile" style="image;html=1;labelBackgroundColor=#ffffff;image=img/lib/clip_art/telecommunication/iPhone_128x128.png;rounded=1;shadow=0;comic=0;strokeWidth=2;fontSize=22" parent="1" vertex="1">
          <mxGeometry x="800" y="550" width="80" height="80" as="geometry" />
        </mxCell>
        <mxCell id="69ecfefc5c41e42c-10" value="Laptop" style="image;html=1;labelBackgroundColor=#ffffff;image=img/lib/clip_art/computers/Netbook_128x128.png;rounded=1;shadow=0;comic=0;strokeWidth=2;fontSize=22" parent="1" vertex="1">
          <mxGeometry x="420" y="690" width="80" height="80" as="geometry" />
        </mxCell>
        <mxCell id="69ecfefc5c41e42c-11" value="" style="html=1;fillColor=#CCCCCC;strokeColor=#6881B3;gradientColor=none;gradientDirection=north;strokeWidth=2;shape=mxgraph.networks.comm_link_edge;html=1;labelBackgroundColor=none;endArrow=none;fontFamily=Verdana;fontSize=22;fontColor=#000000;" parent="1" target="69ecfefc5c41e42c-1" edge="1">
          <mxGeometry width="100" height="100" relative="1" as="geometry">
            <mxPoint x="230" y="483.125" as="sourcePoint" />
            <mxPoint x="400" y="290" as="targetPoint" />
          </mxGeometry>
        </mxCell>
        <mxCell id="69ecfefc5c41e42c-12" value="" style="html=1;fillColor=#CCCCCC;strokeColor=#6881B3;gradientColor=none;gradientDirection=north;strokeWidth=2;shape=mxgraph.networks.comm_link_edge;html=1;labelBackgroundColor=none;endArrow=none;fontFamily=Verdana;fontSize=22;fontColor=#000000;fontStyle=1" parent="1" source="69ecfefc5c41e42c-5" target="69ecfefc5c41e42c-1" edge="1">
          <mxGeometry width="100" height="100" relative="1" as="geometry">
            <mxPoint x="320" y="481.9565217391305" as="sourcePoint" />
            <mxPoint x="470" y="508.0434782608695" as="targetPoint" />
          </mxGeometry>
        </mxCell>
        <mxCell id="69ecfefc5c41e42c-13" value="" style="html=1;fillColor=#CCCCCC;strokeColor=#6881B3;gradientColor=none;gradientDirection=north;strokeWidth=2;shape=mxgraph.networks.comm_link_edge;html=1;labelBackgroundColor=none;endArrow=none;fontFamily=Verdana;fontSize=22;fontColor=#000000;" parent="1" source="69ecfefc5c41e42c-10" target="69ecfefc5c41e42c-1" edge="1">
          <mxGeometry width="100" height="100" relative="1" as="geometry">
            <mxPoint x="330" y="491.9565217391305" as="sourcePoint" />
            <mxPoint x="480" y="518.0434782608695" as="targetPoint" />
          </mxGeometry>
        </mxCell>
        <mxCell id="69ecfefc5c41e42c-14" value="" style="html=1;fillColor=#CCCCCC;strokeColor=#6881B3;gradientColor=none;gradientDirection=north;strokeWidth=2;shape=mxgraph.networks.comm_link_edge;html=1;labelBackgroundColor=none;endArrow=none;fontFamily=Verdana;fontSize=22;fontColor=#000000;" parent="1" source="69ecfefc5c41e42c-4" target="69ecfefc5c41e42c-1" edge="1">
          <mxGeometry width="100" height="100" relative="1" as="geometry">
            <mxPoint x="340" y="501.9565217391305" as="sourcePoint" />
            <mxPoint x="490" y="528.0434782608695" as="targetPoint" />
          </mxGeometry>
        </mxCell>
        <mxCell id="69ecfefc5c41e42c-16" value="" style="html=1;fillColor=#CCCCCC;strokeColor=#6881B3;gradientColor=none;gradientDirection=north;strokeWidth=2;shape=mxgraph.networks.comm_link_edge;html=1;labelBackgroundColor=none;endArrow=none;fontFamily=Verdana;fontSize=22;fontColor=#000000;" parent="1" source="69ecfefc5c41e42c-8" target="69ecfefc5c41e42c-1" edge="1">
          <mxGeometry width="100" height="100" relative="1" as="geometry">
            <mxPoint x="360" y="521.9565217391305" as="sourcePoint" />
            <mxPoint x="510" y="548.0434782608695" as="targetPoint" />
          </mxGeometry>
        </mxCell>
        <mxCell id="AraijxRtJkAwEiA9Y0jp-1" value="" style="image;html=1;image=img/lib/clip_art/networking/power_distribution_unit_128x128.png" vertex="1" parent="1">
          <mxGeometry x="160" y="450" width="80" height="80" as="geometry" />
        </mxCell>
        <mxCell id="AraijxRtJkAwEiA9Y0jp-2" value="" style="image;html=1;image=img/lib/clip_art/people/Suit_Man_128x128.png" vertex="1" parent="1">
          <mxGeometry x="780" y="300" width="80" height="80" as="geometry" />
        </mxCell>
        <mxCell id="AraijxRtJkAwEiA9Y0jp-3" value="" style="html=1;outlineConnect=0;fillColor=#CCCCCC;strokeColor=#6881B3;gradientColor=none;gradientDirection=north;strokeWidth=2;shape=mxgraph.networks.comm_link_edge;html=1;" edge="1" parent="1" target="AraijxRtJkAwEiA9Y0jp-2">
          <mxGeometry width="100" height="100" relative="1" as="geometry">
            <mxPoint x="830" y="540" as="sourcePoint" />
            <mxPoint x="880" y="430" as="targetPoint" />
          </mxGeometry>
        </mxCell>
      </root>
    </mxGraphModel>
  </diagram>
  <diagram id="BaebJbYLBlizUibWu6Z0" name="第 2 页">
    <mxGraphModel dx="786" dy="546" grid="1" gridSize="10" guides="1" tooltips="1" connect="1" arrows="1" fold="1" page="1" pageScale="1" pageWidth="827" pageHeight="1169" math="0" shadow="0">
      <root>
        <mxCell id="9RVotN_Jj5cczu8maUMs-0" />
        <mxCell id="9RVotN_Jj5cczu8maUMs-1" parent="9RVotN_Jj5cczu8maUMs-0" />
      </root>
    </mxGraphModel>
  </diagram>
</mxfile>
